<?xml version="1.0" encoding="UTF-8"?>
<!DOCTYPE svg PUBLIC "-//W3C//DTD SVG 1.1//EN" "http://www.w3.org/Graphics/SVG/1.1/DTD/svg11.dtd">
<svg version="1.2" width="280mm" height="157.5mm" viewBox="0 0 28000 15750" preserveAspectRatio="xMidYMid" fill-rule="evenodd" stroke-width="28.222" stroke-linejoin="round" xmlns="http://www.w3.org/2000/svg" xmlns:ooo="http://xml.openoffice.org/svg/export" xmlns:xlink="http://www.w3.org/1999/xlink" xmlns:presentation="http://sun.com/xmlns/staroffice/presentation" xmlns:smil="http://www.w3.org/2001/SMIL20/" xmlns:anim="urn:oasis:names:tc:opendocument:xmlns:animation:1.0" xml:space="preserve">
 <defs class="ClipPathGroup">
  <clipPath id="presentation_clip_path" clipPathUnits="userSpaceOnUse">
   <rect x="0" y="0" width="28000" height="15750"/>
  </clipPath>
  <clipPath id="presentation_clip_path_shrink" clipPathUnits="userSpaceOnUse">
   <rect x="28" y="15" width="27944" height="15719"/>
  </clipPath>
 </defs>
 <defs class="TextShapeIndex">
  <g ooo:slide="id1" ooo:id-list="id3 id4 id5 id6 id7"/>
 </defs>
 <defs class="EmbeddedBulletChars">
  <g id="bullet-char-template-57356" transform="scale(0.00048828125,-0.00048828125)">
   <path d="M 580,1141 L 1163,571 580,0 -4,571 580,1141 Z"/>
  </g>
  <g id="bullet-char-template-57354" transform="scale(0.00048828125,-0.00048828125)">
   <path d="M 8,1128 L 1137,1128 1137,0 8,0 8,1128 Z"/>
  </g>
  <g id="bullet-char-template-10146" transform="scale(0.00048828125,-0.00048828125)">
   <path d="M 174,0 L 602,739 174,1481 1456,739 174,0 Z M 1358,739 L 309,1346 659,739 1358,739 Z"/>
  </g>
  <g id="bullet-char-template-10132" transform="scale(0.00048828125,-0.00048828125)">
   <path d="M 2015,739 L 1276,0 717,0 1260,543 174,543 174,936 1260,936 717,1481 1274,1481 2015,739 Z"/>
  </g>
  <g id="bullet-char-template-10007" transform="scale(0.00048828125,-0.00048828125)">
   <path d="M 0,-2 C -7,14 -16,27 -25,37 L 356,567 C 262,823 215,952 215,954 215,979 228,992 255,992 264,992 276,990 289,987 310,991 331,999 354,1012 L 381,999 492,748 772,1049 836,1024 860,1049 C 881,1039 901,1025 922,1006 886,937 835,863 770,784 769,783 710,716 594,584 L 774,223 C 774,196 753,168 711,139 L 727,119 C 717,90 699,76 672,76 641,76 570,178 457,381 L 164,-76 C 142,-110 111,-127 72,-127 30,-127 9,-110 8,-76 1,-67 -2,-52 -2,-32 -2,-23 -1,-13 0,-2 Z"/>
  </g>
  <g id="bullet-char-template-10004" transform="scale(0.00048828125,-0.00048828125)">
   <path d="M 285,-33 C 182,-33 111,30 74,156 52,228 41,333 41,471 41,549 55,616 82,672 116,743 169,778 240,778 293,778 328,747 346,684 L 369,508 C 377,444 397,411 428,410 L 1163,1116 C 1174,1127 1196,1133 1229,1133 1271,1133 1292,1118 1292,1087 L 1292,965 C 1292,929 1282,901 1262,881 L 442,47 C 390,-6 338,-33 285,-33 Z"/>
  </g>
  <g id="bullet-char-template-9679" transform="scale(0.00048828125,-0.00048828125)">
   <path d="M 813,0 C 632,0 489,54 383,161 276,268 223,411 223,592 223,773 276,916 383,1023 489,1130 632,1184 813,1184 992,1184 1136,1130 1245,1023 1353,916 1407,772 1407,592 1407,412 1353,268 1245,161 1136,54 992,0 813,0 Z"/>
  </g>
  <g id="bullet-char-template-8226" transform="scale(0.00048828125,-0.00048828125)">
   <path d="M 346,457 C 273,457 209,483 155,535 101,586 74,649 74,723 74,796 101,859 155,911 209,963 273,989 346,989 419,989 480,963 531,910 582,859 608,796 608,723 608,648 583,586 532,535 482,483 420,457 346,457 Z"/>
  </g>
  <g id="bullet-char-template-8211" transform="scale(0.00048828125,-0.00048828125)">
   <path d="M -4,459 L 1135,459 1135,606 -4,606 -4,459 Z"/>
  </g>
  <g id="bullet-char-template-61548" transform="scale(0.00048828125,-0.00048828125)">
   <path d="M 173,740 C 173,903 231,1043 346,1159 462,1274 601,1332 765,1332 928,1332 1067,1274 1183,1159 1299,1043 1357,903 1357,740 1357,577 1299,437 1183,322 1067,206 928,148 765,148 601,148 462,206 346,322 231,437 173,577 173,740 Z"/>
  </g>
 </defs>
 <g>
  <g id="id2" class="Master_Slide">
   <g id="bg-id2" class="Background"/>
   <g id="bo-id2" class="BackgroundObjects"/>
  </g>
 </g>
 <g class="SlideGroup">
  <g>
   <g id="container-id1">
    <g id="id1" class="Slide" clip-path="url(#presentation_clip_path)">
     <g class="Page">
      <g class="com.sun.star.drawing.CustomShape">
       <g id="id3">
        <rect class="BoundingBox" stroke="none" fill="none" x="0" y="0" width="28001" height="15751"/>
        <path fill="rgb(255,170,149)" stroke="none" d="M 14000,15750 L 0,15750 0,0 28000,0 28000,15750 14000,15750 Z"/>
       </g>
      </g>
      <g class="Group">
       <g class="com.sun.star.drawing.ClosedBezierShape">
        <g id="id4">
         <rect class="BoundingBox" stroke="none" fill="none" x="10032" y="253" width="7216" height="15243"/>
         <path fill="rgb(255,123,89)" stroke="none" d="M 11554,3732 C 11340,3824 11043,3989 10996,4606 10952,5180 10966,5589 11188,6252 11330,6679 11195,7154 10979,7850 10730,8649 10586,7838 10437,8869 10386,9220 9933,8399 10053,9354 10120,9886 10194,10101 10228,10952 10259,11741 9960,12278 10227,12551 10440,12768 10497,13823 10804,13617 10984,13496 11185,13777 11362,13617 11669,13341 11667,13777 11939,14198 12250,14681 12329,14712 12549,14828 12747,14932 12909,14688 13124,15313 13256,15695 13510,15363 13700,15313 13900,15261 14459,15462 14259,14780 13926,13642 14415,13688 14485,13182 14596,12373 14157,12416 14276,11583 14345,11098 14159,10199 14451,10127 14647,10080 14939,9790 15009,10612 15101,11698 15241,11070 15567,11628 15836,12089 15890,11533 16125,12113 16591,13257 16361,12172 16702,12162 16956,12154 17188,11351 17243,10659 17292,10026 16746,9874 16842,9014 16902,8466 16813,8064 17034,7414 17169,7015 17047,6521 16859,5863 16619,5033 16251,5957 16300,4845 16338,3979 16341,3931 16125,3296 15912,2672 15861,3114 15584,2812 15318,2522 15209,2247 15009,2811 14874,3190 14605,3042 14433,2810 14203,2504 13948,1999 13892,1310 13841,690 13743,98 13525,292 13337,459 13151,105 12967,777 12838,1247 12718,1912 12426,1794 12230,1713 11957,1471 11867,2280 L 11867,2813 11675,3346 11553,3685 11554,3732 Z"/>
         <path fill="none" stroke="rgb(191,0,65)" d="M 11554,3732 C 11340,3824 11043,3989 10996,4606 10952,5180 10966,5589 11188,6252 11330,6679 11195,7154 10979,7850 10730,8649 10586,7838 10437,8869 10386,9220 9933,8399 10053,9354 10120,9886 10194,10101 10228,10952 10259,11741 9960,12278 10227,12551 10440,12768 10497,13823 10804,13617 10984,13496 11185,13777 11362,13617 11669,13341 11667,13777 11939,14198 12250,14681 12329,14712 12549,14828 12747,14932 12909,14688 13124,15313 13256,15695 13510,15363 13700,15313 13900,15261 14459,15462 14259,14780 13926,13642 14415,13688 14485,13182 14596,12373 14157,12416 14276,11583 14345,11098 14159,10199 14451,10127 14647,10080 14939,9790 15009,10612 15101,11698 15241,11070 15567,11628 15836,12089 15890,11533 16125,12113 16591,13257 16361,12172 16702,12162 16956,12154 17188,11351 17243,10659 17292,10026 16746,9874 16842,9014 16902,8466 16813,8064 17034,7414 17169,7015 17047,6521 16859,5863 16619,5033 16251,5957 16300,4845 16338,3979 16341,3931 16125,3296 15912,2672 15861,3114 15584,2812 15318,2522 15209,2247 15009,2811 14874,3190 14605,3042 14433,2810 14203,2504 13948,1999 13892,1310 13841,690 13743,98 13525,292 13337,459 13151,105 12967,777 12838,1247 12718,1912 12426,1794 12230,1713 11957,1471 11867,2280 L 11867,2813 11675,3346 11553,3685 11554,3732 Z"/>
        </g>
       </g>
       <g class="Group">
        <g class="com.sun.star.drawing.ClosedBezierShape">
         <g id="id5">
          <rect class="BoundingBox" stroke="none" fill="none" x="10620" y="3394" width="6233" height="11706"/>
          <path fill="rgb(191,129,158)" stroke="none" d="M 13503,15031 C 13263,15381 13257,14229 13012,14546 12757,14877 12693,13786 12505,13622 12329,13471 12186,13730 11996,13140 11887,12799 11668,13139 11504,13141 11335,13138 11163,13041 10997,13139 10807,13251 10490,12388 10679,12257 10941,12074 10979,11267 11172,11331 11440,11423 11382,10952 11663,10892 11909,10838 12148,10112 12187,9436 12232,8672 12510,8580 12520,8028 12530,7469 12693,7444 12853,7105 13082,6618 13241,7004 13360,6621 13545,6027 13726,6439 13884,6178 14083,5851 14192,5202 14376,4812 14538,4469 14639,3532 14900,3888 15156,4237 15141,3147 15407,3448 15569,3630 15681,3443 15898,3889 16196,4494 15892,5017 16248,5298 16434,5446 16483,6015 16739,6224 16901,6355 16875,7350 16740,7630 16348,8444 16860,8227 16755,8997 16695,9434 16854,10026 16755,10407 16637,10859 16510,11597 16247,11375 16064,11219 15983,11216 15708,10888 15440,10568 15436,10827 15185,10406 14889,9911 14909,10289 14693,9483 14584,9075 14236,9183 14186,9966 14157,10426 14170,10908 14186,11376 14204,11879 14149,12241 14361,12784 14669,13580 14354,12696 14201,13710 14061,14642 14207,14882 13869,15076 L 13694,15078 13536,15075 13456,15077 13503,15031 Z"/>
          <path fill="none" stroke="rgb(161,70,126)" d="M 13503,15031 C 13263,15381 13257,14229 13012,14546 12757,14877 12693,13786 12505,13622 12329,13471 12186,13730 11996,13140 11887,12799 11668,13139 11504,13141 11335,13138 11163,13041 10997,13139 10807,13251 10490,12388 10679,12257 10941,12074 10979,11267 11172,11331 11440,11423 11382,10952 11663,10892 11909,10838 12148,10112 12187,9436 12232,8672 12510,8580 12520,8028 12530,7469 12693,7444 12853,7105 13082,6618 13241,7004 13360,6621 13545,6027 13726,6439 13884,6178 14083,5851 14192,5202 14376,4812 14538,4469 14639,3532 14900,3888 15156,4237 15141,3147 15407,3448 15569,3630 15681,3443 15898,3889 16196,4494 15892,5017 16248,5298 16434,5446 16483,6015 16739,6224 16901,6355 16875,7350 16740,7630 16348,8444 16860,8227 16755,8997 16695,9434 16854,10026 16755,10407 16637,10859 16510,11597 16247,11375 16064,11219 15983,11216 15708,10888 15440,10568 15436,10827 15185,10406 14889,9911 14909,10289 14693,9483 14584,9075 14236,9183 14186,9966 14157,10426 14170,10908 14186,11376 14204,11879 14149,12241 14361,12784 14669,13580 14354,12696 14201,13710 14061,14642 14207,14882 13869,15076 L 13694,15078 13536,15075 13456,15077 13503,15031 Z"/>
         </g>
        </g>
        <g class="com.sun.star.drawing.ClosedBezierShape">
         <g id="id6">
          <rect class="BoundingBox" stroke="none" fill="none" x="12917" y="6402" width="3658" height="8143"/>
          <path fill="rgb(129,212,26)" stroke="none" d="M 13819,14503 C 13664,14406 13431,14492 13368,14060 13281,13453 13079,13725 12990,13292 12926,12979 12837,12497 13063,12201 13204,12018 13120,11393 13136,10991 13152,10578 13097,10030 13238,9781 13392,9508 13536,9203 13630,8770 13719,8359 13807,7945 13906,7560 14005,7178 14189,7195 14342,7194 14488,7195 14637,7251 14779,7115 14930,6968 15065,6710 15215,6550 15352,6404 15507,6451 15652,6550 15789,6645 15966,6969 16088,6590 16231,6146 16424,6588 16495,6953 16595,7467 16262,7830 16422,8165 16616,8572 16567,8943 16567,9375 16567,9810 16596,10116 16421,10589 16262,11018 16184,10839 15972,10626 15742,10397 15736,10607 15535,10223 15279,9736 15344,9940 15099,9418 14909,9014 14831,8681 14663,8611 14508,8545 14418,8596 14226,9013 13982,9545 14193,9745 13936,10223 13815,10446 13923,11032 13935,11436 13950,11864 13915,12151 14081,12646 14186,12961 14169,13667 13936,13857 L 13935,14261 13834,14543 13819,14503 Z"/>
          <path fill="none" stroke="rgb(161,70,126)" d="M 13819,14503 C 13664,14406 13431,14492 13368,14060 13281,13453 13079,13725 12990,13292 12926,12979 12837,12497 13063,12201 13204,12018 13120,11393 13136,10991 13152,10578 13097,10030 13238,9781 13392,9508 13536,9203 13630,8770 13719,8359 13807,7945 13906,7560 14005,7178 14189,7195 14342,7194 14488,7195 14637,7251 14779,7115 14930,6968 15065,6710 15215,6550 15352,6404 15507,6451 15652,6550 15789,6645 15966,6969 16088,6590 16231,6146 16424,6588 16495,6953 16595,7467 16262,7830 16422,8165 16616,8572 16567,8943 16567,9375 16567,9810 16596,10116 16421,10589 16262,11018 16184,10839 15972,10626 15742,10397 15736,10607 15535,10223 15279,9736 15344,9940 15099,9418 14909,9014 14831,8681 14663,8611 14508,8545 14418,8596 14226,9013 13982,9545 14193,9745 13936,10223 13815,10446 13923,11032 13935,11436 13950,11864 13915,12151 14081,12646 14186,12961 14169,13667 13936,13857 L 13935,14261 13834,14543 13819,14503 Z"/>
         </g>
        </g>
        <g class="com.sun.star.drawing.ClosedBezierShape">
         <g id="id7">
          <rect class="BoundingBox" stroke="none" fill="none" x="11272" y="704" width="2911" height="7684"/>
          <path fill="rgb(114,159,207)" stroke="none" d="M 14003,2407 C 13916,2241 13896,1952 13845,1723 13798,1515 13800,1255 13757,1042 13709,805 13603,806 13520,754 13440,706 13355,658 13282,798 13189,975 13179,1306 13075,1438 12984,1553 12961,1873 12884,2034 12821,2166 12726,2127 12647,2143 12567,2158 12491,2248 12409,2230 12329,2214 12248,2184 12170,2231 12089,2278 11991,2466 11996,2759 11999,2987 12015,3270 11925,3419 11842,3556 11734,3669 11703,3948 11673,4224 11576,4311 11497,4411 11412,4518 11359,4741 11338,4982 11315,5251 11373,5460 11418,5666 11467,5892 11592,6046 11584,6350 11577,6629 11488,6820 11441,7055 11397,7280 11324,7459 11298,7715 11277,7927 11238,8304 11338,8374 11472,8467 11406,7976 11465,7781 11527,7575 11575,7299 11671,7207 11754,7128 11832,7010 11909,6899 11990,6784 12052,6567 12076,6304 12096,6078 12107,5852 12147,5644 12191,5418 12232,5167 12298,4983 12364,4799 12447,4645 12535,4566 12610,4497 12695,4562 12773,4544 12877,4518 12930,4243 13020,4123 13097,4020 13153,3666 13258,3773 13345,3862 13418,4008 13512,4102 13600,4189 13680,4181 13765,4190 13856,4199 13928,3988 14003,3860 14084,3722 14142,3508 14154,3265 14165,3044 14236,2692 14090,2625 L 14026,2407 13987,2362 14003,2407 Z"/>
          <path fill="none" stroke="rgb(161,70,126)" d="M 14003,2407 C 13916,2241 13896,1952 13845,1723 13798,1515 13800,1255 13757,1042 13709,805 13603,806 13520,754 13440,706 13355,658 13282,798 13189,975 13179,1306 13075,1438 12984,1553 12961,1873 12884,2034 12821,2166 12726,2127 12647,2143 12567,2158 12491,2248 12409,2230 12329,2214 12248,2184 12170,2231 12089,2278 11991,2466 11996,2759 11999,2987 12015,3270 11925,3419 11842,3556 11734,3669 11703,3948 11673,4224 11576,4311 11497,4411 11412,4518 11359,4741 11338,4982 11315,5251 11373,5460 11418,5666 11467,5892 11592,6046 11584,6350 11577,6629 11488,6820 11441,7055 11397,7280 11324,7459 11298,7715 11277,7927 11238,8304 11338,8374 11472,8467 11406,7976 11465,7781 11527,7575 11575,7299 11671,7207 11754,7128 11832,7010 11909,6899 11990,6784 12052,6567 12076,6304 12096,6078 12107,5852 12147,5644 12191,5418 12232,5167 12298,4983 12364,4799 12447,4645 12535,4566 12610,4497 12695,4562 12773,4544 12877,4518 12930,4243 13020,4123 13097,4020 13153,3666 13258,3773 13345,3862 13418,4008 13512,4102 13600,4189 13680,4181 13765,4190 13856,4199 13928,3988 14003,3860 14084,3722 14142,3508 14154,3265 14165,3044 14236,2692 14090,2625 L 14026,2407 13987,2362 14003,2407 Z"/>
         </g>
        </g>
       </g>
      </g>
     </g>
    </g>
   </g>
  </g>
 </g>
</svg>